<svg width="133" height="133" viewBox="0 0 133 133" fill="none" xmlns="http://www.w3.org/2000/svg">
<path d="M132.554 117.826C132.554 125.959 125.959 132.554 117.826 132.554H14.7282C6.59455 132.554 0 125.959 0 117.826V14.7282C0 6.59455 6.59455 0 14.7282 0H117.826C125.959 0 132.554 6.59455 132.554 14.7282V117.826Z" fill="#DD4A4A"/>
<path d="M79.2708 66.2997L109.604 35.967C113.201 32.3733 113.201 26.5446 109.604 22.951C106.006 19.3536 100.181 19.3536 96.5875 22.951L66.2547 53.2837L35.922 22.951C32.3283 19.3536 26.4959 19.3536 22.9059 22.951C19.3086 26.5446 19.3086 32.3733 22.9059 35.967L53.2387 66.2997L22.8323 96.7061C19.2349 100.303 19.2349 106.128 22.8323 109.722C24.6291 111.519 26.9857 112.417 29.3422 112.417C31.6987 112.417 34.0552 111.519 35.852 109.722L66.2584 79.3121L96.5912 109.645C98.388 111.442 100.745 112.34 103.101 112.34C105.458 112.34 107.81 111.442 109.611 109.645C113.208 106.047 113.208 100.222 109.611 96.6288L79.2708 66.2997Z" fill="white"/>
</svg>
