<svg width="133" height="125" viewBox="0 0 133 125" fill="none" xmlns="http://www.w3.org/2000/svg">
<path d="M132.554 62.9631C132.554 54.2642 125.512 49.7077 115.985 49.7077H88.2311C90.3023 42.2515 91.1308 35.2096 91.1308 28.9962C91.1308 4.97077 84.5031 0 78.7038 0C74.9758 0 72.0761 0.414232 68.3481 2.48539C67.1054 3.31385 66.6911 4.14231 66.2769 5.385L62.1346 27.7535C57.5781 39.3519 46.3938 49.7077 37.2808 56.7496V115.985C40.5946 115.985 43.9085 117.642 48.0508 119.713C52.6073 121.784 57.1638 124.269 62.1346 124.269H101.487C109.771 124.269 115.985 117.642 115.985 111.842C115.985 110.6 115.985 109.771 115.57 108.943C120.541 106.872 124.269 102.729 124.269 97.3442C124.269 94.8588 123.855 92.7877 123.027 90.7165C126.34 88.6454 129.24 84.9173 129.24 80.775C129.24 78.2896 127.997 75.8042 126.755 73.7331C130.068 71.2477 132.554 67.1054 132.554 62.9631V62.9631ZM123.855 62.9631C123.855 68.3481 118.47 68.7623 117.642 71.2477C116.813 74.1473 120.955 74.9758 120.955 79.9465C120.955 84.9173 114.742 84.9173 113.913 87.8169C113.085 91.1308 115.985 91.9592 115.985 96.93V97.7585C115.156 101.901 108.943 102.315 107.7 103.972C106.457 106.043 107.7 106.872 107.7 111.428C107.7 113.913 104.8 115.57 101.487 115.57H62.1346C58.8208 115.57 55.5069 113.913 51.3646 111.842C48.0508 110.185 44.7369 108.528 41.4231 107.7V64.2058C51.7788 56.3354 65.0342 44.7369 70.005 30.2388V29.4104L73.7331 8.69885C75.39 8.28462 76.6327 8.28462 78.7038 8.28462C79.5323 8.28462 82.8461 13.2554 82.8461 28.9962C82.8461 35.2096 81.6035 41.8373 79.5323 49.7077H78.7038C76.2185 49.7077 74.5615 51.3646 74.5615 53.85C74.5615 56.3354 76.2185 57.9923 78.7038 57.9923H115.985C120.127 57.9923 123.855 60.0635 123.855 62.9631Z" fill="#FFFDFD"/>
<path d="M33.1385 124.269H8.28462C3.72808 124.269 0 120.541 0 115.984V57.9921C0 53.4356 3.72808 49.7075 8.28462 49.7075H33.1385C37.695 49.7075 41.4231 53.4356 41.4231 57.9921V115.984C41.4231 120.541 37.695 124.269 33.1385 124.269ZM8.28462 57.9921V115.984H33.1385V57.9921H8.28462Z" fill="#FFFDFD"/>
</svg>
