<svg width="134" height="133" viewBox="0 0 134 133" fill="none" xmlns="http://www.w3.org/2000/svg">
<path d="M98.1206 61.8508L51.0853 33.2555C46.8629 30.9037 41.5447 33.9236 41.5447 38.8677V94.4547C41.5447 99.3721 46.8361 102.419 51.0853 100.067L98.1206 73.0751C102.503 70.6432 102.503 64.3094 98.1206 61.8508ZM133.477 66.6612C133.477 30.0485 103.813 0.384277 67.2003 0.384277C30.5876 0.384277 0.92334 30.0485 0.92334 66.6612C0.92334 103.274 30.5876 132.938 67.2003 132.938C103.813 132.938 133.477 103.274 133.477 66.6612ZM13.7511 66.6612C13.7511 37.1306 37.6696 13.2121 67.2003 13.2121C96.7309 13.2121 120.649 37.1306 120.649 66.6612C120.649 96.1918 96.7309 120.11 67.2003 120.11C37.6696 120.11 13.7511 96.1918 13.7511 66.6612Z" fill="white"/>
</svg>
