<svg width="120" height="120" viewBox="0 0 120 120" fill="none" xmlns="http://www.w3.org/2000/svg">
<path d="M105.79 21.2904C105.96 38.7904 108.745 45.3454 109.73 54.7954C111.235 69.2654 106.445 84.2654 95.3548 95.3553C77.0248 113.685 47.9999 114.805 28.3549 98.7204L42.6149 84.4554C54.3349 92.8054 70.6999 91.7254 81.2149 81.2154C91.7249 70.7004 92.8049 54.3304 84.4549 42.6154L105.79 21.2904ZM91.6398 21.2804L77.3849 35.5454C65.6649 27.1954 49.2999 28.2754 38.7849 38.7854C28.2749 49.3004 27.1949 65.6654 35.5449 77.3854L14.2099 98.7104C14.0399 81.2104 11.2549 74.6554 10.2699 65.2054C8.76485 50.7354 13.5549 35.7354 24.6449 24.6454C42.9748 6.31536 71.9999 5.19536 91.6449 21.2804H91.6398ZM59.9999 40.0004C71.0499 40.0004 79.9999 48.9504 79.9999 60.0004C79.9999 71.0504 71.0499 80.0004 59.9999 80.0004C48.9499 80.0004 39.9999 71.0504 39.9999 60.0004C39.9999 48.9504 48.9499 40.0004 59.9999 40.0004ZM59.9999 52.5004C55.8599 52.5004 52.4999 55.8604 52.4999 60.0004C52.4999 64.1404 55.8599 67.5004 59.9999 67.5004C64.1399 67.5004 67.4999 64.1404 67.4999 60.0004C67.4999 55.8604 64.1399 52.5004 59.9999 52.5004Z" fill="#3b8070"/>
</svg>
