<svg width="120" height="120" viewBox="0 0 120 120" fill="none" xmlns="http://www.w3.org/2000/svg">
<path d="M60 120C93.1371 120 120 93.1371 120 60C120 26.8629 93.1371 0 60 0C26.8629 0 0 26.8629 0 60C0 93.1371 26.8629 120 60 120Z" fill="#77B3D4"/>
<path opacity="0.2" d="M97.5 82.5C97.5 86.625 94.125 90 90 90H30C25.875 90 22.5 86.625 22.5 82.5V45C22.5 40.875 25.875 37.5 30 37.5H90C94.125 37.5 97.5 40.875 97.5 45V82.5Z" fill="#231F20"/>
<path d="M97.5 78.75C97.5 82.875 94.125 86.25 90 86.25H30C25.875 86.25 22.5 82.875 22.5 78.75V41.25C22.5 37.125 25.875 33.75 30 33.75H90C94.125 33.75 97.5 37.125 97.5 41.25V78.75Z" fill="#E0E0D1"/>
<path opacity="0.2" d="M66.5625 56.625C63 52.6875 57 52.6875 53.4375 56.625L24.375 81C24 81.375 23.8125 81.75 23.4375 82.125C24.75 84.5625 27.1875 86.25 29.8125 86.25H89.8125C92.625 86.25 94.875 84.5625 96.1875 82.125C96 81.75 95.625 81.375 95.25 81L66.5625 56.625Z" fill="#231F20"/>
<path d="M66.5625 60.0005C63 56.438 57 56.438 53.4375 60.0005L24.375 81.563C24 81.938 23.8125 82.1255 23.4375 82.5005C24.75 84.7505 27.1875 86.063 29.8125 86.063H89.8125C92.625 86.063 94.875 84.563 96.1875 82.5005C96 82.1255 95.625 81.938 95.25 81.563L66.5625 60.0005Z" fill="#E0E0D1"/>
<path opacity="0.2" d="M23.625 37.875C24.9375 35.4375 27.375 33.75 30 33.75H90C92.8125 33.75 95.0625 35.4375 96.375 37.875C96.1875 38.25 95.8125 38.625 95.4375 39L66.5625 63.375C63 67.3125 57 67.3125 53.4375 63.375L23.625 37.875Z" fill="#231F20"/>
<path d="M53.4375 60.0005C57 63.563 63 63.563 66.5625 60.0005L95.625 38.438C96 38.063 96.1875 37.8755 96.5625 37.5005C95.25 35.2505 92.8125 33.938 90.1875 33.938H30C27.1875 33.938 24.9375 35.438 23.625 37.5005C23.8125 37.8755 24.1875 38.063 24.5625 38.438L53.4375 60.0005Z" fill="white"/>
</svg>
