<svg width="120" height="121" viewBox="0 0 120 121" fill="none" xmlns="http://www.w3.org/2000/svg">
<path d="M83.0192 33.4351H36.98C35.0255 33.4351 33.4351 35.0267 33.4351 36.981V83.0219C33.4351 84.9764 35.0257 86.5678 36.98 86.5678H83.019C84.9735 86.5678 86.564 84.9763 86.564 83.0219V36.981C86.5642 35.0267 84.9735 33.4351 83.0192 33.4351V33.4351ZM82.6931 82.697H37.3061V37.3061H82.6931V82.697Z" fill="#42b883"/>
<path d="M51.1834 66.4176C51.5417 66.7087 51.9716 66.8487 52.3988 66.8487C52.963 66.8487 53.5225 66.6028 53.9052 66.1304C54.5772 65.2987 54.4477 64.0795 53.616 63.4084L49.4 60.0005L53.6151 56.5982C54.4468 55.9272 54.5772 54.708 53.9062 53.8763C53.2332 53.0426 52.0159 52.9124 51.1842 53.5852L45.1035 58.4922C44.6479 58.8589 44.3833 59.4127 44.3833 59.9986C44.3833 60.5827 44.6469 61.1365 45.1026 61.5031L51.1834 66.4176Z" fill="#42b883"/>
<path d="M57.5978 66.7365C57.8122 66.8122 58.0315 66.848 58.247 66.848C59.0427 66.848 59.7884 66.3546 60.07 65.5626L63.5678 55.7412C63.9268 54.7338 63.4015 53.6261 62.3941 53.267C61.3847 52.9097 60.2789 53.4333 59.9218 54.4408L56.4241 64.2621C56.0648 65.2697 56.5903 66.3773 57.5978 66.7365Z" fill="#42b883"/>
<path d="M66.062 66.1293C66.4449 66.6018 67.0043 66.8476 67.5685 66.8476C67.9956 66.8476 68.4257 66.7077 68.7838 66.4166L74.8645 61.502C75.3201 61.1352 75.5837 60.5815 75.5837 59.9975C75.5837 59.4116 75.3192 58.8577 74.8635 58.4911L68.7828 53.5841C67.9521 52.915 66.7339 53.0416 66.0609 53.8752C65.3898 54.7069 65.5203 55.9261 66.352 56.5972L70.567 59.9995L66.351 63.4074C65.5197 64.0784 65.3902 65.2976 66.062 66.1293Z" fill="#42b883"/>
<path d="M113.634 91.1217C110.805 91.1217 108.43 92.9918 107.606 95.5523H104.13V86.5323C104.13 85.4626 103.263 84.5968 102.194 84.5968H95.6987V78.8184H104.546C105.371 81.3788 107.748 83.2491 110.58 83.2491C114.086 83.2491 116.939 80.393 116.939 76.8829C116.939 73.3766 114.086 70.5225 110.58 70.5225C107.749 70.5225 105.372 72.3905 104.547 74.9473H95.6985V61.9335H104.546C105.37 64.4952 107.748 66.3659 110.58 66.3659C114.086 66.3659 116.939 63.5098 116.939 59.998C116.939 56.4917 114.086 53.6376 110.58 53.6376C107.749 53.6376 105.372 55.5056 104.547 58.0624H95.6985V45.0503H104.546C105.371 47.6107 107.748 49.481 110.58 49.481C114.086 49.481 116.939 46.6249 116.939 43.1148C116.939 39.6086 114.086 36.7544 110.58 36.7544C107.749 36.7544 105.372 38.6224 104.546 41.1793H95.6983V35.3991H102.194C103.263 35.3991 104.13 34.5334 104.13 33.4636V24.4436H107.605C108.429 27.0053 110.804 28.876 113.633 28.876C117.143 28.876 119.999 26.0199 119.999 22.508C119.999 19.0018 117.143 16.1477 113.633 16.1477C110.805 16.1477 108.431 18.0156 107.606 20.5725H102.194C101.125 20.5725 100.258 21.4383 100.258 22.508V31.5281H95.0588C93.964 28.4589 91.5334 26.0278 88.4655 24.9341V19.741H97.4856C98.5544 19.741 99.4211 18.8752 99.4211 17.8054V12.3929C101.978 11.5674 103.845 9.19073 103.845 6.36058C103.845 2.85415 100.992 0 97.486 0C93.9749 0 91.1188 2.85415 91.1188 6.36039C91.1188 9.19151 92.9893 11.5687 95.5504 12.3935V15.8699H86.5304C85.4616 15.8699 84.5949 16.7357 84.5949 17.8054V24.2963H78.8157V15.4482C81.376 14.624 83.2464 12.2485 83.2464 9.42068C83.2464 5.90863 80.3903 3.05274 76.8802 3.05274C73.373 3.05274 70.5198 5.90883 70.5198 9.42068C70.5198 12.2479 72.3876 14.6228 74.9446 15.4478V24.2965H61.9316V15.4483C64.4927 14.6242 66.3632 12.2487 66.3632 9.42068C66.3632 5.90863 63.5071 3.05274 59.996 3.05274C56.4898 3.05274 53.6366 5.90883 53.6366 9.42068C53.6366 12.2477 55.504 14.6226 58.0605 15.4476V24.2963H45.0484V15.4483C47.6095 14.6242 49.48 12.2487 49.48 9.42068C49.48 5.90863 46.6239 3.05274 43.1129 3.05274C39.6066 3.05274 36.7535 5.90883 36.7535 9.42068C36.7535 12.2477 38.6209 14.6226 41.1773 15.4476V24.2963H35.3982V17.8054C35.3982 16.7357 34.5314 15.8699 33.4626 15.8699H24.4426V12.3935C27.0037 11.5687 28.8742 9.19151 28.8742 6.36039C28.8742 2.85415 26.0183 0 22.5073 0C19.001 0 16.1478 2.85415 16.1478 6.36039C16.1478 9.19054 18.0153 11.5672 20.5717 12.3927V17.8054C20.5717 18.8752 21.4385 19.741 22.5073 19.741H31.5273V24.9358C28.4595 26.0303 26.029 28.4604 24.9342 31.5281H19.741V22.508C19.741 21.4383 18.8743 20.5725 17.8054 20.5725H12.3927C11.5672 18.0156 9.19035 16.1477 6.35942 16.1477C2.85318 16.1477 0 19.0018 0 22.508C0 26.0201 2.85318 28.876 6.35942 28.876C9.19131 28.876 11.5689 27.0053 12.3937 24.4436H15.8699V33.4636C15.8699 34.5334 16.7366 35.3991 17.8054 35.3991H24.2944V41.1793H15.4468C14.6223 38.6224 12.2477 36.7544 9.41971 36.7544C5.90863 36.7544 3.05254 39.6086 3.05254 43.1148C3.05254 46.6249 5.90863 49.481 9.41971 49.481C12.2483 49.481 14.6232 47.6109 15.4474 45.0503H24.2946V58.0624H15.4468C14.6223 55.5056 12.2477 53.6376 9.41971 53.6376C5.90863 53.6376 3.05254 56.4917 3.05254 59.998C3.05254 63.51 5.90863 66.3659 9.41971 66.3659C12.2487 66.3659 14.6238 64.4952 15.4476 61.9335H24.2944V74.9473H15.4468C14.6223 72.3905 12.2477 70.5225 9.41971 70.5225C5.90863 70.5225 3.05254 73.3766 3.05254 76.8829C3.05254 80.393 5.90863 83.2491 9.41971 83.2491C12.2483 83.2491 14.6232 81.3789 15.4474 78.8184H24.2946V84.5968H17.8056C16.7368 84.5968 15.8701 85.4626 15.8701 86.5323V95.5523H12.3935C11.5685 92.992 9.19131 91.1217 6.35961 91.1217C2.85338 91.1217 0.000193356 93.9778 0.000193356 97.4879C0.000193356 100.994 2.85338 103.848 6.35961 103.848C9.19054 103.848 11.5676 101.98 12.3929 99.4234H17.8054C18.8743 99.4234 19.741 98.5577 19.741 97.4879V88.4679H24.9323C26.0261 91.5365 28.4577 93.9677 31.5273 95.0623V100.262H22.5073C21.4385 100.262 20.5717 101.128 20.5717 102.198V107.61C18.0153 108.435 16.1478 110.81 16.1478 113.637C16.1478 117.147 19.001 120.003 22.5073 120.003C26.0183 120.003 28.8744 117.147 28.8744 113.637C28.8744 110.809 27.0039 108.434 24.4428 107.61V104.133H33.4628C34.5316 104.133 35.3984 103.268 35.3984 102.198V95.7014H41.1775V104.55C38.6211 105.376 36.7536 107.753 36.7536 110.583C36.7536 114.089 39.6068 116.943 43.1131 116.943C46.6241 116.943 49.4802 114.089 49.4802 110.583C49.4802 107.752 47.6097 105.374 45.0486 104.55V95.7014H58.0607V104.55C55.5042 105.376 53.6368 107.753 53.6368 110.583C53.6368 114.089 56.49 116.943 59.9962 116.943C63.5073 116.943 66.3634 114.089 66.3634 110.583C66.3634 107.752 64.4929 105.374 61.9318 104.55V95.7014H74.9446V104.55C72.3874 105.376 70.5198 107.752 70.5198 110.583C70.5198 114.089 73.373 116.943 76.8802 116.943C80.3903 116.943 83.2464 114.089 83.2464 110.583C83.2464 107.752 81.3762 105.375 78.8157 104.55V95.7016H84.5949V102.198C84.5949 103.268 85.4616 104.134 86.5304 104.134H95.5504V107.61C92.9893 108.434 91.1188 110.809 91.1188 113.637C91.1188 117.148 93.9749 120.004 97.486 120.004C100.992 120.004 103.845 117.148 103.845 113.637C103.845 110.81 101.978 108.436 99.4215 107.611V102.198C99.4215 101.128 98.5548 100.263 97.486 100.263H88.4659V95.064C91.5357 93.97 93.9673 91.5378 95.0613 88.4679H100.259V97.4879C100.259 98.5577 101.126 99.4234 102.194 99.4234H107.607C108.431 101.98 110.806 103.848 113.634 103.848C117.144 103.848 120 100.994 120 97.4879C120 93.9778 117.144 91.1217 113.634 91.1217V91.1217ZM110.58 74.3936C111.952 74.3936 113.068 75.5106 113.068 76.8829C113.068 78.2588 111.952 79.378 110.58 79.378C109.204 79.378 108.084 78.259 108.084 76.8829C108.084 75.5108 109.204 74.3936 110.58 74.3936ZM110.58 57.5087C111.952 57.5087 113.068 58.6257 113.068 59.998C113.068 61.3739 111.952 62.4948 110.58 62.4948C109.204 62.4948 108.084 61.3739 108.084 59.998C108.084 58.6259 109.204 57.5087 110.58 57.5087V57.5087ZM110.58 40.6257C111.952 40.6257 113.068 41.7427 113.068 43.115C113.068 44.491 111.952 45.6101 110.58 45.6101C109.204 45.6101 108.084 44.4912 108.084 43.115C108.084 41.7427 109.204 40.6257 110.58 40.6257ZM113.634 20.0189C115.01 20.0189 116.129 21.1359 116.129 22.5082C116.129 23.8842 115.01 25.0051 113.634 25.0051C112.262 25.0051 111.145 23.8842 111.145 22.5082C111.144 21.1359 112.262 20.0189 113.634 20.0189V20.0189ZM97.486 3.87109C98.8583 3.87109 99.9743 4.98809 99.9743 6.36039C99.9743 7.73637 98.8581 8.8555 97.486 8.8555C96.11 8.8555 94.9899 7.73656 94.9899 6.36039C94.9899 4.98809 96.11 3.87109 97.486 3.87109V3.87109ZM76.8802 6.92363C78.2561 6.92363 79.3753 8.0445 79.3753 9.42048C79.3753 10.7928 78.2563 11.9098 76.8802 11.9098C75.5079 11.9098 74.3909 10.7928 74.3909 9.42048C74.3909 8.0447 75.5079 6.92363 76.8802 6.92363ZM59.996 6.92363C61.372 6.92363 62.4921 8.0445 62.4921 9.42048C62.4921 10.7928 61.3722 11.9098 59.996 11.9098C58.6237 11.9098 57.5077 10.7928 57.5077 9.42048C57.5077 8.0447 58.6239 6.92363 59.996 6.92363ZM43.1131 6.92363C44.489 6.92363 45.6091 8.0445 45.6091 9.42048C45.6091 10.7928 44.4892 11.9098 43.1131 11.9098C41.7408 11.9098 40.6247 10.7928 40.6247 9.42048C40.6245 8.0447 41.7408 6.92363 43.1131 6.92363ZM22.5073 3.87109C23.8832 3.87109 25.0033 4.98809 25.0033 6.36039C25.0033 7.73637 23.8834 8.8555 22.5073 8.8555C21.135 8.8555 20.0189 7.73656 20.0189 6.36039C20.0189 4.98809 21.135 3.87109 22.5073 3.87109V3.87109ZM6.35942 25.0051C4.98712 25.0051 3.87109 23.8842 3.87109 22.5082C3.87109 21.1359 4.98731 20.0189 6.35942 20.0189C7.7354 20.0189 8.8555 21.1359 8.8555 22.5082C8.8555 23.8842 7.73559 25.0051 6.35942 25.0051ZM9.41971 45.6101C8.04373 45.6101 6.92363 44.4912 6.92363 43.115C6.92363 41.7427 8.04354 40.6257 9.41971 40.6257C10.792 40.6257 11.909 41.7427 11.909 43.115C11.909 44.491 10.792 45.6101 9.41971 45.6101ZM9.41971 62.495C8.04373 62.495 6.92363 61.3741 6.92363 59.9982C6.92363 58.6259 8.04354 57.5089 9.41971 57.5089C10.792 57.5089 11.909 58.6259 11.909 59.9982C11.909 61.3741 10.792 62.495 9.41971 62.495ZM9.41971 79.378C8.04373 79.378 6.92363 78.259 6.92363 76.8829C6.92363 75.5106 8.04354 74.3936 9.41971 74.3936C10.792 74.3936 11.909 75.5106 11.909 76.8829C11.909 78.259 10.792 79.378 9.41971 79.378ZM6.35942 99.9772C4.98712 99.9772 3.87109 98.8602 3.87109 97.4879C3.87109 96.1119 4.98731 94.9928 6.35942 94.9928C7.7354 94.9928 8.8555 96.1117 8.8555 97.4879C8.8555 98.8602 7.73559 99.9772 6.35942 99.9772ZM22.5073 116.133C21.135 116.133 20.0189 115.014 20.0189 113.637C20.0189 112.265 21.1352 111.148 22.5073 111.148C23.8832 111.148 25.0033 112.265 25.0033 113.637C25.0032 115.014 23.8832 116.133 22.5073 116.133ZM43.1131 113.072C41.7408 113.072 40.6247 111.955 40.6247 110.583C40.6247 109.207 41.741 108.088 43.1131 108.088C44.489 108.088 45.6091 109.207 45.6091 110.583C45.6089 111.955 44.489 113.072 43.1131 113.072ZM59.996 113.072C58.6237 113.072 57.5077 111.955 57.5077 110.583C57.5077 109.207 58.6239 108.088 59.996 108.088C61.372 108.088 62.4921 109.207 62.4921 110.583C62.4921 111.955 61.3722 113.072 59.996 113.072ZM76.8802 113.072C75.5079 113.072 74.3909 111.955 74.3909 110.583C74.3909 109.207 75.5079 108.088 76.8802 108.088C78.2561 108.088 79.3753 109.207 79.3753 110.583C79.3753 111.955 78.2561 113.072 76.8802 113.072ZM97.486 116.133C96.11 116.133 94.9899 115.014 94.9899 113.637C94.9899 112.265 96.1098 111.148 97.486 111.148C98.8583 111.148 99.9743 112.265 99.9743 113.637C99.9743 115.014 98.8583 116.133 97.486 116.133ZM84.8351 91.8305H35.1648C31.3051 91.8305 28.1654 88.6928 28.1654 84.8368V35.1667C28.1654 31.307 31.3051 28.1674 35.1648 28.1674H84.8349C88.6909 28.1674 91.8276 31.307 91.8276 35.1667V84.8368C91.8276 88.6928 88.6908 91.8305 84.8351 91.8305V91.8305ZM113.634 99.9772C112.262 99.9772 111.145 98.8602 111.145 97.4879C111.145 96.1119 112.262 94.9928 113.634 94.9928C115.01 94.9928 116.129 96.1117 116.129 97.4879C116.129 98.8602 115.01 99.9772 113.634 99.9772Z" fill="#42b883"/>
</svg>
