<svg width="120" height="120" viewBox="0 0 120 120" fill="none" xmlns="http://www.w3.org/2000/svg">
<path fill-rule="evenodd" clip-rule="evenodd" d="M86.6665 10C86.6665 4.47717 91.1435 0 96.6665 0H110C115.523 0 120 4.47717 120 10V110C120 115.523 115.523 120 110 120H96.6665C91.1435 120 86.6665 115.523 86.6665 110V10ZM96.6665 6.66667C94.8255 6.66667 93.3332 8.15907 93.3332 10V13.9053L100.572 6.66667H96.6665ZM110 6.66667L93.3332 23.3333V30.572L113.333 10.5719V10C113.333 8.15907 111.841 6.66667 110 6.66667ZM113.333 20L93.3332 40V47.2387L113.333 27.2387V20ZM113.333 36.6667L93.3332 56.6667V63.9053L113.333 43.9053V36.6667ZM113.333 53.3333L93.3332 73.3333V80.572L113.333 60.572V53.3333ZM113.333 70L93.3332 90V97.2387L113.333 77.2387V70ZM113.333 86.6667L93.3332 106.667V110C93.3332 111.066 93.8338 112.015 94.6125 112.626L113.333 93.905V86.6667ZM113.333 103.333L103.333 113.333H110C111.841 113.333 113.333 111.841 113.333 110V103.333Z" fill="#42b883"/>
<path fill-rule="evenodd" clip-rule="evenodd" d="M43.3333 50C43.3333 44.477 47.8103 40 53.3333 40H66.6666C72.1896 40 76.6666 44.477 76.6666 50V110C76.6666 115.523 72.1896 120 66.6666 120H53.3333C47.8103 120 43.3333 115.523 43.3333 110V50ZM59.9999 46.6667H66.6666C66.8469 46.6667 67.0239 46.681 67.1966 46.7087L49.9999 63.9053V56.6667L59.9999 46.6667ZM49.9999 80.572V73.3333L69.9999 53.3333V60.572L49.9999 80.572ZM69.9999 77.2387V70L49.9999 90V97.2387L69.9999 77.2387ZM49.9999 110V106.667L69.9999 86.6667V93.9057L51.2796 112.626C50.5006 112.016 49.9999 111.066 49.9999 110ZM60.0003 113.333L69.9999 103.334V110C69.9999 111.841 68.5076 113.333 66.6666 113.333H60.0003Z" fill="#42b883"/>
<path fill-rule="evenodd" clip-rule="evenodd" d="M10 80C4.47717 80 0 84.477 0 90V110C0 115.523 4.47717 120 10 120H23.3333C28.8563 120 33.3333 115.523 33.3333 110V90C33.3333 84.477 28.8563 80 23.3333 80H10ZM6.66667 90C6.66667 88.159 8.15907 86.6667 10 86.6667H17.2387L6.66667 97.2387V90ZM6.66667 106.667L25.6903 87.643C26.2937 88.2463 26.6667 89.0797 26.6667 90V93.9053L7.9463 112.626C7.1673 112.016 6.66667 111.066 6.66667 110V106.667ZM16.6667 113.333H23.3333C25.1743 113.333 26.6667 111.841 26.6667 110V103.333L16.6667 113.333Z" fill="#42b883"/>
</svg>
