<svg width="120" height="120" viewBox="0 0 120 120" fill="none" xmlns="http://www.w3.org/2000/svg">
<path d="M120 60C120 26.8629 93.1371 0 60 0C26.8629 0 0 26.8629 0 60C0 93.1371 26.8629 120 60 120C93.1371 120 120 93.1371 120 60Z" fill="#754A91"/>
<path d="M45.9955 84.5308C45.9955 83.5249 45.9955 82.519 45.9955 81.5132C46.0026 81.472 46.0012 81.4299 45.9912 81.3894C45.9813 81.3488 45.963 81.3108 45.9376 81.2775C45.9122 81.2442 45.8802 81.2164 45.8435 81.1959C45.807 81.1754 45.7663 81.1626 45.7245 81.1581C43.2083 80.4499 40.886 79.1882 38.9304 77.4668C37.5055 76.1826 36.3192 74.6605 35.4254 72.9699C34.1655 70.5279 33.3271 67.894 32.9448 65.1777C32.4712 61.7703 32.3066 58.3278 32.4532 54.8913C32.4855 53.2891 32.568 51.7052 32.7519 50.103C33.0448 47.0585 33.82 44.0786 35.0487 41.273C36.5659 37.8234 39.3184 35.0525 42.7753 33.4944C45.1302 32.4267 47.6076 31.6473 50.1529 31.1732C52.6488 30.7047 55.1758 30.4173 57.7141 30.313C60.002 30.2328 62.2925 30.2662 64.5771 30.4131C67.8468 30.5498 71.0869 31.0865 74.2238 32.0107C76.5496 32.6749 78.7621 33.6798 80.7883 34.9919C82.7625 36.3347 84.359 38.1532 85.4279 40.2762C86.6845 42.7559 87.5388 45.4164 87.9591 48.1595C88.2321 49.7882 88.4116 51.4309 88.4965 53.0798C88.6159 55.1234 88.6022 57.1761 88.5241 59.2107C88.446 61.2451 88.2714 63.2206 88.0188 65.2141C87.6994 68.2063 86.7712 71.1033 85.2901 73.7301C83.3623 77.053 80.2742 79.5623 76.6081 80.785C74.1012 81.6548 71.5127 82.2738 68.8813 82.6329C66.9566 82.8969 65.0273 83.088 63.0887 83.1654C61.6049 83.2337 60.1212 83.2155 58.6374 83.1927C57.7968 83.1927 56.9607 83.1108 56.1246 83.0379C56.0425 83.0226 55.9577 83.0317 55.8809 83.0641C55.804 83.0965 55.7386 83.1507 55.6929 83.2201C54.0023 85.2318 52.2476 87.1889 50.479 89.137C50.1568 89.4924 49.7838 89.7991 49.3719 90.0473C49.1015 90.2231 48.7931 90.3334 48.4718 90.3693C48.1504 90.4052 47.825 90.3658 47.5219 90.2541C47.2187 90.1425 46.9464 89.9619 46.7267 89.7266C46.5071 89.4915 46.3463 89.2084 46.2574 88.9003C46.0823 88.3529 45.9954 87.7814 46.0001 87.2071C45.9956 86.306 45.9955 85.4184 45.9955 84.5308V84.5308ZM48.0397 88.3496L48.2557 88.1493L52.0914 83.93C53.5675 82.3067 55.042 80.6817 56.5151 79.0554C56.5875 78.9562 56.6852 78.8777 56.7982 78.8281C56.9112 78.7786 57.0354 78.7596 57.1582 78.7731C57.6589 78.8232 58.1597 78.8414 58.665 78.846C60.4106 78.846 62.1562 78.846 63.9018 78.723C65.4866 78.6002 67.0668 78.409 68.638 78.1633C70.3294 77.8715 72.004 77.4902 73.6542 77.0208C77.3293 76.0422 80.1727 73.9486 81.9597 70.5577C83.0146 68.4729 83.6763 66.2146 83.912 63.8942C84.1913 61.7071 84.3584 59.5074 84.4127 57.3035C84.4941 54.535 84.3033 51.7652 83.843 49.0335C83.5239 47.0542 82.9496 45.1237 82.1343 43.2894C81.096 41.0136 79.6261 39.1293 77.3614 37.9186C73.8886 36.0615 70.1309 35.2332 66.2583 34.8099C65.1604 34.6915 64.0626 34.6278 62.9601 34.5868C60.7026 34.4715 58.4404 34.4837 56.1843 34.6232C54.5618 34.7425 52.9481 34.9584 51.3518 35.2696C49.0041 35.6936 46.7331 36.4606 44.6127 37.5453C43.3835 38.1608 42.2684 38.9779 41.3145 39.9622C39.7685 41.6742 38.6346 43.7113 37.9978 45.9201C37.2425 48.4927 36.8302 51.1521 36.7714 53.8307C36.6235 56.5093 36.6573 59.1947 36.8724 61.8687C37.0062 63.4602 37.2751 65.0375 37.6763 66.5841C38.2732 68.9944 39.4311 71.2328 41.0572 73.1201C42.813 75.0458 45.0822 76.4405 47.6032 77.1436C47.9203 77.2393 48.0627 77.3485 48.0627 77.7035C48.0351 79.0144 48.0627 80.3252 48.0627 81.6361L48.0397 88.3496Z" fill="white"/>
<path d="M44.8248 47.6959C44.7926 46.6992 45.3392 45.9755 46.0008 45.3245C46.8731 44.4965 47.8343 43.7655 48.8672 43.1444C49.3382 42.8566 49.8982 42.747 50.4442 42.8356C50.9902 42.9242 51.4856 43.2052 51.8394 43.6269C53.089 44.9284 54.2075 46.3476 55.179 47.8643C55.66 48.5466 56.0233 49.3034 56.2539 50.1037C56.3461 50.4161 56.3521 50.7471 56.2712 51.0624C56.1905 51.3779 56.0259 51.6661 55.7946 51.897C55.2646 52.4125 54.6997 52.8915 54.1041 53.3308C53.8039 53.5678 53.5807 53.887 53.4623 54.2487C53.3438 54.6106 53.3354 54.9988 53.438 55.3652C53.8059 57.0862 54.6396 58.6753 55.8496 59.9624C57.3201 61.741 59.2147 63.1285 61.3621 63.9995C61.8897 64.2683 62.4945 64.3502 63.0756 64.2316C63.3939 64.1457 63.6767 63.9624 63.8841 63.7082C64.2056 63.3032 64.5547 62.9117 64.8442 62.4794C65.2196 61.9399 65.7927 61.5672 66.4414 61.4405C67.0902 61.3139 67.7632 61.4432 68.317 61.8012C69.8741 62.6963 71.3442 63.7324 72.7085 64.8962C73.0302 65.1692 73.3655 65.4333 73.687 65.7109C74.0675 65.9984 74.3423 66.4017 74.4693 66.8589C74.5962 67.3159 74.5683 67.8017 74.3899 68.2415C74.106 68.9814 73.6924 69.6655 73.1679 70.2625C72.5163 71.1599 71.6861 71.9158 70.7286 72.4836C70.271 72.75 69.7567 72.9063 69.2271 72.9403C68.6973 72.9743 68.167 72.8849 67.6785 72.6793C63.9618 71.1966 60.4891 69.1734 57.3748 66.6759C54.3287 64.1913 51.6666 61.2777 49.4736 58.028C47.6283 55.3377 46.1602 52.4117 45.1096 49.33C44.9977 48.9572 44.9057 48.5789 44.834 48.1966C44.8135 48.0305 44.8104 47.8628 44.8248 47.6959V47.6959Z" fill="white"/>
<path d="M60.6845 42.853C63.7941 42.91 66.7849 44.0464 69.1354 46.0643C71.4859 48.0823 73.0471 50.8535 73.5469 53.8951C73.748 55.0009 73.8556 56.1214 73.8685 57.245C73.8685 57.5089 73.7995 57.7002 73.5147 57.7274C73.2299 57.7548 73.1564 57.5135 73.1564 57.2722C73.1992 54.9996 72.7283 52.7463 71.7783 50.6771C70.9784 48.977 69.7933 47.4827 68.3154 46.3103C66.8374 45.138 65.1064 44.3194 63.257 43.9181C62.2792 43.6937 61.2793 43.5778 60.2757 43.5721C60.1779 43.5738 60.0804 43.5616 59.9863 43.5358C59.9061 43.5134 59.8378 43.461 59.7957 43.3897C59.7538 43.3184 59.7414 43.2336 59.7611 43.1534C59.7618 43.1154 59.7699 43.0778 59.7854 43.0429C59.8007 43.008 59.823 42.9766 59.8508 42.9504C59.8786 42.924 59.9113 42.9036 59.9472 42.89C59.9832 42.8765 60.0214 42.87 60.0597 42.8712C60.2665 42.844 60.4778 42.853 60.6845 42.853V42.853Z" fill="white"/>
<path d="M69.5522 55.1963C69.5367 53.9318 69.2225 52.6884 68.6345 51.5661C68.0466 50.4437 67.2014 49.4734 66.1667 48.7331C64.959 47.8926 63.5551 47.371 62.0875 47.2175C61.8394 47.1855 61.5913 47.1719 61.3386 47.1446C61.0861 47.1173 60.9344 47.0127 60.9574 46.7578C60.9803 46.5028 61.1411 46.4118 61.4167 46.43C65.4868 46.6758 68.9504 48.9561 70.0162 53.2027C70.211 54.0216 70.3083 54.8602 70.3055 55.7015V55.9291C70.3055 56.1567 70.1586 56.3069 69.9335 56.3023C69.8835 56.3007 69.8345 56.2889 69.7893 56.2678C69.7441 56.2468 69.7037 56.2168 69.6707 56.1797C69.6375 56.1426 69.6124 56.0993 69.5968 56.0523C69.5812 56.0053 69.5754 55.9556 69.5797 55.9063C69.543 55.6925 69.5522 55.474 69.5522 55.1963V55.1963Z" fill="white"/>
<path d="M62.4217 50.1257C64.6543 50.2759 66.2115 51.3592 66.6388 53.7123C66.6906 54.0138 66.7274 54.3176 66.749 54.6226C66.749 54.8685 66.6938 55.0778 66.4229 55.0778C66.1519 55.0778 66.06 54.8957 66.0507 54.6226C66.0482 53.7207 65.7678 52.8409 65.2469 52.101C64.6995 51.4311 63.9135 50.9945 63.051 50.8813C62.8583 50.8455 62.6635 50.8212 62.4677 50.8084C62.1461 50.8084 61.9669 50.6492 62.0083 50.4034C62.0496 50.1576 62.2425 50.1121 62.4217 50.1257V50.1257Z" fill="white"/>
</svg>
